<svg width="206" height="19" viewBox="0 0 206 19" fill="none" xmlns="http://www.w3.org/2000/svg">
  <path d="M32.458 15V3.084H37.804C38.74 3.084 39.478 3.246 40.018 3.57C40.57 3.894 40.966 4.302 41.206 4.794C41.446 5.274 41.566 5.754 41.566 6.234C41.566 7.002 41.404 7.596 41.08 8.016C40.756 8.424 40.384 8.724 39.964 8.916C40.3 9.024 40.636 9.198 40.972 9.438C41.32 9.666 41.608 9.978 41.836 10.374C42.064 10.77 42.178 11.268 42.178 11.868C42.178 12.756 41.836 13.5 41.152 14.1C40.48 14.7 39.466 15 38.11 15H32.458ZM33.808 8.412H37.804C38.224 8.412 38.614 8.34 38.974 8.196C39.346 8.052 39.646 7.83 39.874 7.53C40.102 7.218 40.216 6.822 40.216 6.342C40.216 6.006 40.138 5.688 39.982 5.388C39.838 5.088 39.598 4.842 39.262 4.65C38.938 4.458 38.5 4.362 37.948 4.362H33.808V8.412ZM33.808 13.722H38.254C39.07 13.722 39.7 13.554 40.144 13.218C40.6 12.87 40.828 12.384 40.828 11.76C40.828 11.196 40.612 10.704 40.18 10.284C39.748 9.852 39.058 9.636 38.11 9.636H33.808V13.722ZM44.034 4.488V2.724H45.492V4.488H44.034ZM44.088 15V6H45.438V15H44.088ZM47.7794 15V6H49.1294V7.404C49.4534 6.972 49.8494 6.606 50.3174 6.306C50.7854 6.006 51.3854 5.856 52.1174 5.856C52.7414 5.856 53.3234 6.006 53.8634 6.306C54.4154 6.594 54.8594 7.032 55.1954 7.62C55.5434 8.196 55.7174 8.91 55.7174 9.762V15H54.3674V9.798C54.3674 8.982 54.1334 8.328 53.6654 7.836C53.1974 7.332 52.5914 7.08 51.8474 7.08C51.3434 7.08 50.8874 7.194 50.4794 7.422C50.0714 7.65 49.7414 7.974 49.4894 8.394C49.2494 8.802 49.1294 9.276 49.1294 9.816V15H47.7794ZM61.7727 15.144C60.8967 15.144 60.1287 14.94 59.4687 14.532C58.8207 14.112 58.3167 13.548 57.9567 12.84C57.5967 12.132 57.4167 11.352 57.4167 10.5C57.4167 9.636 57.5967 8.856 57.9567 8.16C58.3167 7.452 58.8207 6.894 59.4687 6.486C60.1287 6.066 60.8967 5.856 61.7727 5.856C62.5167 5.856 63.1527 6 63.6807 6.288C64.2207 6.576 64.6587 6.966 64.9947 7.458V6H66.3447V15H64.9947V13.56C64.6587 14.04 64.2207 14.424 63.6807 14.712C63.1527 15 62.5167 15.144 61.7727 15.144ZM61.9527 13.92C62.6247 13.92 63.1887 13.764 63.6447 13.452C64.1127 13.14 64.4667 12.726 64.7067 12.21C64.9467 11.682 65.0667 11.112 65.0667 10.5C65.0667 9.876 64.9467 9.306 64.7067 8.79C64.4667 8.274 64.1127 7.86 63.6447 7.548C63.1887 7.236 62.6247 7.08 61.9527 7.08C61.2927 7.08 60.7227 7.236 60.2427 7.548C59.7627 7.86 59.3967 8.274 59.1447 8.79C58.8927 9.306 58.7667 9.876 58.7667 10.5C58.7667 11.112 58.8927 11.682 59.1447 12.21C59.3967 12.726 59.7627 13.14 60.2427 13.452C60.7227 13.764 61.2927 13.92 61.9527 13.92ZM68.6798 15V6H70.0298V7.404C70.3538 6.972 70.7498 6.606 71.2178 6.306C71.6858 6.006 72.2858 5.856 73.0178 5.856C73.6418 5.856 74.2238 6.006 74.7638 6.306C75.3158 6.594 75.7598 7.032 76.0958 7.62C76.4438 8.196 76.6178 8.91 76.6178 9.762V15H75.2678V9.798C75.2678 8.982 75.0338 8.328 74.5658 7.836C74.0978 7.332 73.4918 7.08 72.7478 7.08C72.2438 7.08 71.7878 7.194 71.3798 7.422C70.9718 7.65 70.6418 7.974 70.3898 8.394C70.1498 8.802 70.0298 9.276 70.0298 9.816V15H68.6798ZM82.7451 15.144C81.8451 15.144 81.0651 14.94 80.4051 14.532C79.7451 14.112 79.2291 13.548 78.8571 12.84C78.4971 12.132 78.3171 11.352 78.3171 10.5C78.3171 9.636 78.4971 8.856 78.8571 8.16C79.2291 7.452 79.7451 6.894 80.4051 6.486C81.0651 6.066 81.8451 5.856 82.7451 5.856C83.8131 5.856 84.7191 6.132 85.4631 6.684C86.2191 7.236 86.7291 7.95 86.9931 8.826H85.5351C85.3311 8.31 85.0011 7.89 84.5451 7.566C84.1011 7.242 83.5611 7.08 82.9251 7.08C82.2651 7.08 81.6891 7.236 81.1971 7.548C80.7051 7.86 80.3271 8.274 80.0631 8.79C79.7991 9.306 79.6671 9.876 79.6671 10.5C79.6671 11.112 79.7991 11.682 80.0631 12.21C80.3271 12.726 80.7051 13.14 81.1971 13.452C81.6891 13.764 82.2651 13.92 82.9251 13.92C83.5611 13.92 84.1011 13.758 84.5451 13.434C85.0011 13.11 85.3311 12.69 85.5351 12.174H86.9931C86.7291 13.05 86.2191 13.764 85.4631 14.316C84.7191 14.868 83.8131 15.144 82.7451 15.144ZM92.6621 15.144C91.7501 15.144 90.9521 14.94 90.2681 14.532C89.5841 14.112 89.0501 13.548 88.6661 12.84C88.2941 12.132 88.1081 11.352 88.1081 10.5C88.1081 9.636 88.2881 8.856 88.6481 8.16C89.0081 7.452 89.5241 6.894 90.1961 6.486C90.8681 6.066 91.6601 5.856 92.5721 5.856C93.4961 5.856 94.2881 6.066 94.9481 6.486C95.6201 6.894 96.1361 7.452 96.4961 8.16C96.8561 8.856 97.0361 9.636 97.0361 10.5V11.04H89.4941C89.5661 11.568 89.7341 12.054 89.9981 12.498C90.2741 12.93 90.6401 13.278 91.0961 13.542C91.5521 13.794 92.0801 13.92 92.6801 13.92C93.3161 13.92 93.8501 13.782 94.2821 13.506C94.7141 13.218 95.0501 12.852 95.2901 12.408H96.7661C96.4541 13.212 95.9561 13.872 95.2721 14.388C94.6001 14.892 93.7301 15.144 92.6621 15.144ZM89.5121 9.78H95.6321C95.5121 9.012 95.1881 8.37 94.6601 7.854C94.1321 7.338 93.4361 7.08 92.5721 7.08C91.7081 7.08 91.0121 7.338 90.4841 7.854C89.9681 8.37 89.6441 9.012 89.5121 9.78ZM102.806 15V3.084H108.17C109.442 3.084 110.444 3.432 111.176 4.128C111.908 4.812 112.274 5.742 112.274 6.918C112.274 8.094 111.908 9.03 111.176 9.726C110.444 10.41 109.442 10.752 108.17 10.752H104.156V15H102.806ZM104.156 9.492H108.08C109.016 9.492 109.724 9.264 110.204 8.808C110.684 8.352 110.924 7.722 110.924 6.918C110.924 6.126 110.684 5.502 110.204 5.046C109.724 4.59 109.016 4.362 108.08 4.362H104.156V9.492ZM117.726 15.144C116.814 15.144 116.022 14.94 115.35 14.532C114.678 14.112 114.162 13.548 113.802 12.84C113.442 12.132 113.262 11.352 113.262 10.5C113.262 9.636 113.442 8.856 113.802 8.16C114.162 7.452 114.678 6.894 115.35 6.486C116.022 6.066 116.814 5.856 117.726 5.856C118.65 5.856 119.442 6.066 120.102 6.486C120.774 6.894 121.29 7.452 121.65 8.16C122.01 8.856 122.19 9.636 122.19 10.5C122.19 11.352 122.01 12.132 121.65 12.84C121.29 13.548 120.774 14.112 120.102 14.532C119.442 14.94 118.65 15.144 117.726 15.144ZM117.726 13.92C118.398 13.92 118.962 13.764 119.418 13.452C119.886 13.14 120.24 12.726 120.48 12.21C120.72 11.682 120.84 11.112 120.84 10.5C120.84 9.876 120.72 9.306 120.48 8.79C120.24 8.274 119.886 7.86 119.418 7.548C118.962 7.236 118.398 7.08 117.726 7.08C117.066 7.08 116.502 7.236 116.034 7.548C115.566 7.86 115.212 8.274 114.972 8.79C114.732 9.306 114.612 9.876 114.612 10.5C114.612 11.112 114.732 11.682 114.972 12.21C115.212 12.726 115.566 13.14 116.034 13.452C116.502 13.764 117.066 13.92 117.726 13.92ZM123.981 15V6H125.331V8.214C125.379 8.058 125.469 7.854 125.601 7.602C125.745 7.338 125.949 7.074 126.213 6.81C126.477 6.546 126.807 6.324 127.203 6.144C127.611 5.952 128.091 5.856 128.643 5.856H128.733V7.206H128.571C127.899 7.206 127.317 7.392 126.825 7.764C126.345 8.124 125.973 8.598 125.709 9.186C125.457 9.762 125.331 10.38 125.331 11.04V15H123.981ZM131.158 15V7.188H129.322V6H131.158V2.778H132.508V6H134.578V7.188H132.508V15H131.158ZM136.669 15V7.188H135.121V6H136.669V5.208C136.669 4.224 136.963 3.486 137.551 2.994C138.151 2.502 138.967 2.256 139.999 2.256H140.107V3.534H139.927C139.303 3.534 138.829 3.678 138.505 3.966C138.181 4.242 138.019 4.692 138.019 5.316V6H140.107V7.188H138.019V15H136.669ZM145.306 15.144C144.394 15.144 143.602 14.94 142.93 14.532C142.258 14.112 141.742 13.548 141.382 12.84C141.022 12.132 140.842 11.352 140.842 10.5C140.842 9.636 141.022 8.856 141.382 8.16C141.742 7.452 142.258 6.894 142.93 6.486C143.602 6.066 144.394 5.856 145.306 5.856C146.23 5.856 147.022 6.066 147.682 6.486C148.354 6.894 148.87 7.452 149.23 8.16C149.59 8.856 149.77 9.636 149.77 10.5C149.77 11.352 149.59 12.132 149.23 12.84C148.87 13.548 148.354 14.112 147.682 14.532C147.022 14.94 146.23 15.144 145.306 15.144ZM145.306 13.92C145.978 13.92 146.542 13.764 146.998 13.452C147.466 13.14 147.82 12.726 148.06 12.21C148.3 11.682 148.42 11.112 148.42 10.5C148.42 9.876 148.3 9.306 148.06 8.79C147.82 8.274 147.466 7.86 146.998 7.548C146.542 7.236 145.978 7.08 145.306 7.08C144.646 7.08 144.082 7.236 143.614 7.548C143.146 7.86 142.792 8.274 142.552 8.79C142.312 9.306 142.192 9.876 142.192 10.5C142.192 11.112 142.312 11.682 142.552 12.21C142.792 12.726 143.146 13.14 143.614 13.452C144.082 13.764 144.646 13.92 145.306 13.92ZM151.561 15V2.4H152.911V15H151.561ZM155.198 4.488V2.724H156.656V4.488H155.198ZM155.252 15V6H156.602V15H155.252ZM162.849 15.144C161.937 15.144 161.145 14.94 160.473 14.532C159.801 14.112 159.285 13.548 158.925 12.84C158.565 12.132 158.385 11.352 158.385 10.5C158.385 9.636 158.565 8.856 158.925 8.16C159.285 7.452 159.801 6.894 160.473 6.486C161.145 6.066 161.937 5.856 162.849 5.856C163.773 5.856 164.565 6.066 165.225 6.486C165.897 6.894 166.413 7.452 166.773 8.16C167.133 8.856 167.313 9.636 167.313 10.5C167.313 11.352 167.133 12.132 166.773 12.84C166.413 13.548 165.897 14.112 165.225 14.532C164.565 14.94 163.773 15.144 162.849 15.144ZM162.849 13.92C163.521 13.92 164.085 13.764 164.541 13.452C165.009 13.14 165.363 12.726 165.603 12.21C165.843 11.682 165.963 11.112 165.963 10.5C165.963 9.876 165.843 9.306 165.603 8.79C165.363 8.274 165.009 7.86 164.541 7.548C164.085 7.236 163.521 7.08 162.849 7.08C162.189 7.08 161.625 7.236 161.157 7.548C160.689 7.86 160.335 8.274 160.095 8.79C159.855 9.306 159.735 9.876 159.735 10.5C159.735 11.112 159.855 11.682 160.095 12.21C160.335 12.726 160.689 13.14 161.157 13.452C161.625 13.764 162.189 13.92 162.849 13.92ZM172.365 15L177.423 3.084H179.115L184.173 15H182.679L181.221 11.544H175.317L173.859 15H172.365ZM175.839 10.302H180.699L178.269 4.488L175.839 10.302ZM185.399 18.564V6H186.749V7.44C187.085 6.948 187.517 6.564 188.045 6.288C188.585 6 189.227 5.856 189.971 5.856C190.847 5.856 191.609 6.066 192.257 6.486C192.917 6.894 193.427 7.452 193.787 8.16C194.147 8.856 194.327 9.636 194.327 10.5C194.327 11.352 194.147 12.132 193.787 12.84C193.427 13.548 192.917 14.112 192.257 14.532C191.609 14.94 190.847 15.144 189.971 15.144C189.227 15.144 188.585 15 188.045 14.712C187.517 14.412 187.085 14.022 186.749 13.542V18.564H185.399ZM189.791 13.92C190.463 13.92 191.033 13.764 191.501 13.452C191.981 13.14 192.347 12.726 192.599 12.21C192.851 11.682 192.977 11.112 192.977 10.5C192.977 9.876 192.851 9.306 192.599 8.79C192.347 8.274 191.981 7.86 191.501 7.548C191.033 7.236 190.463 7.08 189.791 7.08C189.131 7.08 188.567 7.236 188.099 7.548C187.631 7.86 187.277 8.274 187.037 8.79C186.797 9.306 186.677 9.876 186.677 10.5C186.677 11.112 186.797 11.682 187.037 12.21C187.277 12.726 187.631 13.14 188.099 13.452C188.567 13.764 189.131 13.92 189.791 13.92ZM196.104 18.564V6H197.454V7.44C197.79 6.948 198.222 6.564 198.75 6.288C199.29 6 199.932 5.856 200.676 5.856C201.552 5.856 202.314 6.066 202.962 6.486C203.622 6.894 204.132 7.452 204.492 8.16C204.852 8.856 205.032 9.636 205.032 10.5C205.032 11.352 204.852 12.132 204.492 12.84C204.132 13.548 203.622 14.112 202.962 14.532C202.314 14.94 201.552 15.144 200.676 15.144C199.932 15.144 199.29 15 198.75 14.712C198.222 14.412 197.79 14.022 197.454 13.542V18.564H196.104ZM200.496 13.92C201.168 13.92 201.738 13.764 202.206 13.452C202.686 13.14 203.052 12.726 203.304 12.21C203.556 11.682 203.682 11.112 203.682 10.5C203.682 9.876 203.556 9.306 203.304 8.79C203.052 8.274 202.686 7.86 202.206 7.548C201.738 7.236 201.168 7.08 200.496 7.08C199.836 7.08 199.272 7.236 198.804 7.548C198.336 7.86 197.982 8.274 197.742 8.79C197.502 9.306 197.382 9.876 197.382 10.5C197.382 11.112 197.502 11.682 197.742 12.21C197.982 12.726 198.336 13.14 198.804 13.452C199.272 13.764 199.836 13.92 200.496 13.92Z" fill="white"/>
  <rect x="6.56281" y="13" width="4" height="4" transform="rotate(32.26 6.56281 13)" fill="#F7AD1F"/>
  <rect x="7.47302" y="2.01309" width="4" height="14" transform="rotate(32.2617 7.47302 2.01309)" fill="#F7AD1F"/>
  <rect x="19.1715" y="2.75302" width="4" height="4" transform="rotate(32.26 19.1715 2.75302)" fill="#F76C1F"/>
  <rect x="14.9004" width="4" height="14" transform="rotate(32.26 14.9004 0)" fill="#F76C1F"/>
</svg>